<svg xmlns="http://www.w3.org/2000/svg" width="1365.333" height="1365.333" viewBox="232 203 561 609"><g fill="#0052ff"><path d="M528.3 267.8c-1.7.3-3 2.7-7.1 13.5-2.8 7.3-12.6 32.8-21.7 56.7-9.2 23.9-18.6 48.7-21 55s-4.6 12.3-5 13.2c-.7 1.7.3 1.8 11.7 1.8h12.4l5.7-14.8c3-8.1 9.6-25.3 14.5-38.2 5-12.9 13.8-36.1 19.7-51.5s11.3-29.7 12-31.7l1.4-3.7-10.2-.3c-5.6-.2-11.2-.2-12.4 0m-232.2 15.9c0 .5 3.1 7.3 6.8 15.3l6.8 14.5 38.1.3 38.2.2v49h-52v30h52v192h31V393h44.5l5.7-14.8 5.6-14.7-27.9-.3-27.9-.2v-49h74.7l6-15.5 6.1-15.5H399.9c-57.2 0-103.9.3-103.8.7m260.5 13.8c-3.1 8-5.6 15-5.6 15.5 0 .6 10.5 1 28 1h28v49h-37.7l-37.6-.1-5.7 14.8-5.7 14.8 43.3.3 43.4.2v95.8c0 52.7.2 96.1.4 96.3s7.2.3 15.5.1l15.1-.3V393h53v-30h-53v-49l38.2-.2 38.2-.3 6.7-14.5c3.8-8 6.8-14.8 6.9-15.3 0-.4-37.3-.7-82.9-.7h-82.8z"/><path d="M338.5 439.2c-10.4 6.1-27.5 16-38 22.1-10.4 6-27.9 16.1-38.7 22.4L242 495.2V506c0 7.4.4 11.1 1.3 11.8.6.5 9.3 5.7 19.2 11.4 20.9 12.2 86 49.9 92.3 53.5l4.2 2.4v-31.7l-22.2-12.8c-12.3-7.1-30.5-17.6-40.5-23.3-10.1-5.8-18.3-10.8-18.3-11.2.1-.3 5.6-3.7 12.3-7.5s23-13.2 36.2-20.9c13.2-7.6 25.9-15 28.3-16.3l4.2-2.5v-15.4c0-8.5-.3-15.5-.7-15.5-.5.1-9.3 5.1-19.8 11.2m326.5 4.2v15.4l29.8 17.3c16.3 9.5 34.5 20 40.4 23.3 5.9 3.4 10.8 6.4 10.8 6.8 0 .3-2.6 2.1-5.7 3.9-3.2 1.8-16.6 9.5-29.8 17.2-13.2 7.6-28.8 16.7-34.7 20.1l-10.8 6.1v31.6l5.8-3.2c3.1-1.8 14.7-8.5 25.7-14.9 28.2-16.4 48.3-28 68.3-39.5l17.2-10v-22.3l-19.2-11.3c-52-30.3-96.5-55.9-97.2-55.9-.3 0-.6 6.9-.6 15.4M438 630c-10 2.5-16.1 5.2-23.6 10.5-12.3 8.8-21.4 22.1-25 36.4-2.4 9.8-1.6 27.4 1.8 36.8 6.7 18.9 22 33.3 42.3 40 7.1 2.4 9.6 2.7 22.5 2.7 15.9.1 23.2-1.5 35.1-7.5 15.7-7.9 28.3-24 32.4-41.1 1.9-8.3 1.9-23.4-.1-31.2-6.1-24-26.7-42.9-51.8-47.5-9.1-1.7-25-1.2-33.6.9m33 24.4c10.2 3.6 20.5 14.7 23.7 25.5 2.5 8.7 1.4 22.1-2.5 30.5-3.7 7.9-10.1 14.4-18 18.3-5.3 2.6-6.6 2.8-17.7 2.8-11.2 0-12.4-.2-17.8-2.8-11.7-5.8-20-17.5-21.6-30.3-2.5-21.3 8.8-39.5 27.9-44.9 6.7-1.8 19.4-1.4 26 .9m224.5-24.8c-13.4 2.8-28.7 11.8-36.7 21.6-4.9 6-10.3 16-12.4 23.3-1.3 4.3-1.8 9.3-1.8 18 0 10.5.3 13 2.8 20 9.4 27.1 35.1 44.5 65.9 44.5 10.3 0 18.3-1.4 26.7-4.7 19.4-7.7 33.8-23.2 39.6-42.8 2.4-8.1 2.5-24.7.1-33.5-6.4-23.7-24.7-40.9-49.4-46.4-8.9-2-25.2-2-34.8 0m28 23.8c15.7 4.1 25.7 15.3 28.6 31.9 3.3 18-5.8 36-21.9 43.5-5.1 2.4-6.8 2.7-17.2 2.7s-12.1-.3-17.2-2.7c-24.6-11.5-30.6-45.4-11.5-65.1 9.8-10 25.2-14.1 39.2-10.3M243 681.8c0 28.5-.3 56.7-.7 62.5l-.6 10.7h33.9c37.8-.1 44.1-.7 56.8-6 25.7-10.7 40.5-36.9 36.7-65-3.4-25.1-17.9-42.4-42.6-50.7l-8-2.7-37.7-.4-37.8-.3zm76.2-24.6c15.5 7.2 23.3 22.8 20.8 41.2-1.4 9.5-4.9 16.4-11.5 22.5-9.2 8.4-13.4 9.5-37.2 9.9l-20.3.3v-77.2l21.3.3c20.5.3 21.4.4 26.9 3M547 641.5V653h45v29.2c0 38.3-.7 42.5-8.4 48.2-2.2 1.7-4.2 2.1-9.4 2-8 0-15.1-3.4-20.9-9.7-3.4-3.8-3.6-3.9-5.3-2.1-4.8 5.3-14 16.6-14 17.3 0 .5 2.1 3.1 4.7 5.7 9.4 9.3 24.6 14.2 41.3 13.1 19.6-1.2 31.2-9.1 37.3-25.4 2.1-5.6 2.2-7.2 2.5-53.6l.3-47.7H547z"/></g></svg>