<svg xmlns="http://www.w3.org/2000/svg" width="1365.333" height="1365.333" viewBox="232 203 561 609"><g fill="#0052ff"><path d="M434.3 213.3c-7.8 5.6-14.4 10.5-14.7 10.8s11.4 9.2 26 19.8l26.5 19.3 5.4-3.8c2.9-2.2 9.6-7 14.9-10.8s9.6-7.2 9.6-7.5-4.2-3.6-9.3-7.2c-5-3.6-16.8-12.1-26.1-18.8-9.3-6.6-17.1-12.1-17.5-12.1-.3 0-7 4.7-14.8 10.3m117.7 5.8c-12.4 8.9-30.1 21.7-39.5 28.4-9.3 6.7-25.3 18.2-35.5 25.5s-23.9 17.2-30.5 21.8c-27.4 19.3-33.5 29.5-37.5 62.3-4.2 35.1-4.7 36.8-11.4 42.7-3.3 2.8-5.6 3.7-12.6 4.4l-2.5.3-.3 17.6-.2 17.6 4.9.6c6.7.8 10.5 2.9 14 7.8 3.6 4.9 4.4 8.4 7.1 31.9 1.2 10.2 2.8 21.4 3.6 25 3.4 14.9 12.7 28.2 27.2 38.8 3.7 2.6 12.7 9.2 20 14.5L472 568l14.8-10.6c8.1-5.8 14.7-11 14.7-11.5 0-.6-10.6-8.6-23.5-17.8-24.6-17.5-28.7-21.4-31-30-.5-2-1.9-12-3-22.1-1.2-10.2-2.8-21.6-3.6-25.5-1.8-9-7.2-20.2-11.9-24.9l-3.7-3.8 2.2-1.5c3.5-2.5 9.8-13 12-20 1.1-3.5 3.1-16.5 4.6-29 2.8-24.9 4.6-31.4 9.8-36.6 1.8-1.8 20.5-15.6 41.7-30.8 21.1-15.1 48.3-34.7 60.4-43.4s27.6-19.9 34.5-24.8 13.1-9.5 13.8-10.2c1.2-1-1.1-3-13-11.5-7.8-5.6-14.7-10.4-15.3-10.6-.5-.2-11.1 6.9-23.5 15.7"/><path d="M368.6 263.6c-21 4.1-36.2 19-41 39.9-.9 3.8-3 22.3-4.6 40.9-3.3 37-3.9 40.5-7.4 47.4-4.1 8-9.3 11.4-19.4 12.8l-5.2.7v33.6l4.8.6c10.3 1.4 14.6 3.9 18.6 10.8 4 6.8 5.4 14.4 8.1 43.1 3.8 41.2 4.4 46.1 6.5 52.2 6 17.2 17.9 28.8 35 33.8 5.6 1.7 32.4 4.1 34.1 3 .5-.3.9-8.4.9-18V547h-8.5c-12.4 0-18.3-1.5-22.7-5.9-2.1-2.1-4.1-5.4-4.7-7.8-.6-2.3-2.7-19.6-4.6-38.5-3.3-33.4-5.5-46-9.1-53-3.5-6.8-8-12-13.6-15.8l-5.8-3.8 5-3.2c9-5.8 14.6-13.9 17.9-25.8 1.3-4.7 3.1-19.1 5.1-39 1.6-17.4 3.5-34.7 4.1-38.4 2.2-13.4 7.8-17.4 25.7-18.5l11.2-.6V262l-11.7.1c-6.5 0-14.9.7-18.7 1.5M625 279.4V297h6.8c9.3 0 19.1 1.8 22.9 4.1 5.4 3.3 7 8.5 8.8 26.9 3.3 35.8 5.7 56.8 7.1 62.9 2.9 12.8 11 24.5 20.2 28.9 1.7.9 3.2 1.8 3.2 2.2 0 .3-1.6 1.4-3.5 2.4-7.2 3.9-13.7 11.9-17.5 21.7-2.9 7.2-4.6 18.6-7.5 49.4-3.9 41.6-4.4 43.9-12.7 48.5-3.7 2.1-5.9 2.5-16 2.8l-11.8.4V583l11.8-.6c22-1 35.7-5.7 45.6-15.6 5.9-6 11.7-16.8 14.1-26.3.8-3.3 2.6-18.8 4-34.5 4.1-45.3 4.8-49.5 10.2-57.2 2.7-4 11-8.8 15.2-8.8 1.5 0 3.6-.3 4.9-.6 2.2-.6 2.2-.9 2.2-17.4v-16.7l-5.2-.7c-10-1.4-15.3-4.8-19.3-12.6-3.4-6.7-4.1-11.4-7.5-48.5-3.3-36.8-4.3-42.3-9.4-53.2-6-12.6-15.1-20.4-29.4-25-6.3-2.1-10.4-2.6-22.4-3.1l-14.8-.5z"/><path d="M537.5 286.6c-7.1 5.2-13.7 9.9-14.5 10.4-1.8 1.1-4.3-1 25.1 20.4 22.7 16.6 26.2 19.9 28.7 27.6.7 1.9 2.3 13.8 3.7 26.5 3.3 29.6 5.3 36.1 14.2 45.6l4.5 4.9-4.5 5c-4.9 5.5-8.8 12.8-10.5 20-.6 2.5-2.2 14.4-3.6 26.5s-3.1 23.7-3.6 25.7c-2.3 7.9-6.4 11.4-50.1 42.8-23.5 16.8-52.2 37.4-64 45.9s-26.5 19.1-32.7 23.5c-8.9 6.4-11 8.3-10 9.3.7.6 7.6 5.7 15.2 11.2l14 10 3.5-2.8c3.5-2.7 50-36.2 106.1-76.4 34.8-25 36.9-26.6 41.7-32.9 9.2-12 12.3-22.1 15.3-49.3 2.4-21.3 4-28.5 7.7-33.4 3.1-4 9.4-7 14.6-7.1h3.7v-17.5c0-13.2-.3-17.7-1.2-18-.7-.2-3.5-.7-6.3-1-4-.6-5.7-1.5-9.1-4.9-5.4-5.4-6.8-10.1-9.4-33.6-2.8-23.9-4.2-30.5-8.4-39.3-5.3-11.1-13-18.7-35.2-34.7-10.7-7.7-20-14-20.7-14s-7 4.3-14.2 9.6m1.5 303.7c-6.9 5-13.7 9.9-15 10.8-1.4.9-2.3 1.9-2 2.1s10.6 7.8 23 16.7c12.4 9 24.1 17.6 26.1 19.2l3.6 2.8 7.9-5.6c4.4-3.1 11.2-8 15.2-11l7.3-5.4-2.8-2.2c-3.7-3-50.1-36.7-50.5-36.7-.2 0-5.9 4.2-12.8 9.3M274.4 699.5c-15.5 3.4-29.7 14.4-36.6 28.5-4.6 9.6-6.1 16.4-6.1 27 .1 16.2 5.4 29.1 16.3 40s23.4 16 39.1 16c22.1-.1 40.4-10.6 49.7-28.8 5.4-10.7 6.7-16 6.7-28.2 0-16.4-5.2-29-16.5-40.1-13.5-13.3-33-18.7-52.6-14.4m28 19.8c7 3.2 13.1 9.6 16.9 17.5 6.1 13 4.5 31.3-3.7 42.4-11.1 15-32.5 18.3-48.2 7.5-20.3-14-20.4-50.3-.1-64.4 9.9-6.9 24-8.1 35.1-3m84.7-19.8c-11.5 2.6-20.7 9.8-24.8 19.2-2.5 5.8-2.3 19.6.4 24.8 4.8 9.1 13.9 14.4 33.7 19.5 15.4 4 21.3 7 23.3 11.8 2.8 6.8-.2 13.8-7.4 16.8-4.4 1.9-16.7 1.8-23.4-.2-6.1-1.8-10.5-4.2-16.7-9.2-2.4-1.9-4.7-3.1-5.1-2.6s-3.1 3.7-6 7.1l-5.2 6.2 3.8 3.5c9.3 8.6 26.1 14.6 41.2 14.6 14 0 24.1-3.4 31.5-10.6 5.9-5.8 8-11.3 8.1-21.4 0-7.3-.4-9.3-2.8-14.2-4.8-9.9-11.7-13.9-34.8-20.2-7.5-2.1-15.1-4.6-16.8-5.7-6.2-3.8-7.5-12.5-2.7-17.8 7.6-8.5 29.5-6.3 41.4 4.3 2.2 2 2.3 2 3.6 0 .8-1 3.3-4.4 5.5-7.5l4.1-5.7-3.3-2.5c-4.6-3.5-13.4-7.8-19.2-9.4-7.9-2.1-21.1-2.5-28.4-.8m63.3 2.2c.3 1 7.1 22.7 15.2 48.3s15.6 49.5 16.7 53.2l2.1 6.8h18.4l3.1-9.3c5.2-15.8 20.1-65 20.1-66.4 0-3.4 1.7-.5 3.8 6.5 1.3 4.2 6.7 21.5 12 38.5l9.7 30.7 9.5-.2 9.4-.3 10.2-32.5c5.6-17.9 13.3-42.5 17.2-54.8l6.9-22.2h-10.3c-8.9 0-10.3.2-10.8 1.7-.3 1-5.3 18.2-11.1 38.3s-10.8 37.2-11.2 38c-.7 2-2.1-2-14.4-43.3L536.5 700h-18.2l-11.8 39.5c-6.5 21.7-12.1 39.3-12.3 39.1-.2-.3-1.4-4-2.7-8.3-1.2-4.3-6-20.4-10.5-35.8s-8.7-29.5-9.2-31.3l-.9-3.2h-10.5c-9.6 0-10.5.2-10 1.7m163.8 7 .3 8.8 17.3.3 17.2.2v92h19v-92l17.3-.2 17.2-.3.1-8.8V700h-88.7zm105 46 .3 54.8 9.7.3 9.8.3.2-22.8.3-22.8 23.3-.3 23.2-.2v-17l-23.2-.2-23.3-.3v-29l26.3-.3 26.2-.2v-17h-73z"/></g></svg>