<svg xmlns="http://www.w3.org/2000/svg" width="1365.333" height="1365.333" viewBox="232 203 561 609">
  <style>text { font-family: "Courier New", "Courier", "Liberation Mono", monospace; font-size: 48px; fill: #0052ff; }</style>
  <g fill="#0052ff">
    <path d="M274.4 699.5c-15.5 3.4-29.7 14.4-36.6 28.5-4.6 9.6-6.1 16.4-6.1 27 .1 16.2 5.4 29.1 16.3 40s23.4 16 39.1 16c22.1-.1 40.4-10.6 49.7-28.8 5.4-10.7 6.7-16 6.7-28.2 0-16.4-5.2-29-16.5-40.1-13.5-13.3-33-18.7-52.6-14.4m28 19.8c7 3.2 13.1 9.6 16.9 17.5 6.1 13 4.5 31.3-3.7 42.4-11.1 15-32.5 18.3-48.2 7.5-20.3-14-20.4-50.3-.1-64.4 9.9-6.9 24-8.1 35.1-3m84.7-19.8c-11.5 2.6-20.7 9.8-24.8 19.2-2.5 5.8-2.3 19.6.4 24.8 4.8 9.1 13.9 14.4 33.7 19.5 15.4 4 21.3 7 23.3 11.8 2.8 6.8-.2 13.8-7.4 16.8-4.4 1.9-16.7 1.8-23.4-.2-6.1-1.8-10.5-4.2-16.7-9.2-2.4-1.9-4.7-3.1-5.1-2.6s-3.1 3.7-6 7.1l-5.2 6.2 3.8 3.5c9.3 8.6 26.1 14.6 41.2 14.6 14 0 24.1-3.4 31.5-10.6 5.9-5.8 8-11.3 8.1-21.4 0-7.3-.4-9.3-2.8-14.2-4.8-9.9-11.7-13.9-34.8-20.2-7.5-2.1-15.1-4.6-16.8-5.7-6.2-3.8-7.5-12.5-2.7-17.8 7.6-8.5 29.5-6.3 41.4 4.3 2.2 2 2.3 2 3.6 0 .8-1 3.3-4.4 5.5-7.5l4.1-5.7-3.3-2.5c-4.6-3.5-13.4-7.8-19.2-9.4-7.9-2.1-21.1-2.5-28.4-.8m63.3 2.2c.3 1 7.1 22.7 15.2 48.3s15.6 49.5 16.7 53.2l2.1 6.8h18.4l3.1-9.3c5.2-15.8 20.1-65 20.1-66.4 0-3.4 1.7-.5 3.8 6.5 1.3 4.2 6.7 21.5 12 38.5l9.7 30.7 9.5-.2 9.4-.3 10.2-32.5c5.6-17.9 13.3-42.5 17.2-54.8l6.9-22.2h-10.3c-8.9 0-10.3.2-10.8 1.7-.3 1-5.3 18.2-11.1 38.3s-10.8 37.2-11.2 38c-.7 2-2.1-2-14.4-43.3L536.5 700h-18.2l-11.8 39.5c-6.5 21.7-12.1 39.3-12.3 39.1-.2-.3-1.4-4-2.7-8.3-1.2-4.3-6-20.4-10.5-35.8s-8.7-29.5-9.2-31.3l-.9-3.2h-10.5c-9.6 0-10.5.2-10 1.7m163.8 7 .3 8.8 17.3.3 17.2.2v92h19v-92l17.3-.2 17.2-.3.1-8.8V700h-88.7zm105 46 .3 54.8 9.7.3 9.8.3.2-22.8.3-22.8 23.3-.3 23.2-.2v-17l-23.2-.2-23.3-.3v-29l26.3-.3 26.2-.2v-17h-73z"/>
  </g>
    <g font-family="monospace" font-size="48" font-weight="bold" fill="#0052ff" text-anchor="middle" xml:space="preserve">
    <text x="500" y="230">..~~~~~~..</text>
    <text x="500" y="290">.-*^^xxxxxxxx^^*-.</text>
    <text x="500" y="350">:=*^^/\\\/\^^*=:</text>
    <text x="500" y="410">..:+#\\\#+:..</text>
    <text x="500" y="470">.=*%%%%#=:</text>
    <text x="500" y="530">+*@*+</text>
    <text x="500" y="590">..=*#=..</text>
    <text x="500" y="650">.....::::---::::.....</text>
  </g>
</svg>